<svg width="24" height="24" viewBox="0 0 24 24" fill="none" xmlns="http://www.w3.org/2000/svg">
<rect x="0.605469" y="0.576172" width="22.9239" height="22.9239" rx="3.5" stroke="white"/>
<path d="M14.9174 5.46692V6.76361H14.1418C13.6632 6.76361 13.2068 6.84839 12.9285 7.21387C12.7969 7.38663 12.7409 7.5791 12.714 7.74803C12.6876 7.91361 12.6845 8.09081 12.6845 8.25272V9.56031V10.0603H13.1845H14.8347L14.6352 11.357H13.1845H12.6845V11.857V18.8213H10.8934V11.857V11.357H10.3934H9.21875V10.0603H10.3934H10.8934V9.56031L10.8934 8.177C10.8934 8.17693 10.8934 8.17686 10.8934 8.17679C10.8945 7.22294 11.0899 6.56743 11.4632 6.14955C11.8262 5.74329 12.444 5.46692 13.516 5.46692H14.9174Z" fill="white" stroke="white"/>
</svg>
