<svg width="25" height="24" viewBox="0 0 25 24" fill="none" xmlns="http://www.w3.org/2000/svg">
<rect x="0.605469" y="0.576172" width="22.9239" height="22.9239" rx="3.5" stroke="#2A324D"/>
<path d="M14.9174 5.4668V6.76349H14.1418C13.6632 6.76349 13.2068 6.84827 12.9285 7.21375C12.7969 7.38651 12.7409 7.57898 12.714 7.74791C12.6876 7.91349 12.6845 8.09069 12.6845 8.2526V9.56019V10.0602H13.1845H14.8347L14.6352 11.3569H13.1845H12.6845V11.8569V18.8211H10.8934V11.8569V11.3569H10.3934H9.21875V10.0602H10.3934H10.8934V9.56019L10.8934 8.17688C10.8934 8.17681 10.8934 8.17674 10.8934 8.17666C10.8945 7.22281 11.0899 6.5673 11.4632 6.14943C11.8262 5.74317 12.444 5.4668 13.516 5.4668H14.9174Z" fill="#2A324D" stroke="#2A324D"/>
</svg>
