<svg width="87" height="30" viewBox="0 0 87 30" fill="none" xmlns="http://www.w3.org/2000/svg">
<rect width="30" height="30" fill="#17171A"/>
<path d="M9.18804 6.92285H8.46155V14.3234H9.18804V6.92285Z" fill="white"/>
<path fill-rule="evenodd" clip-rule="evenodd" d="M11.1254 14.3234H17.8253V14.3045C19.8775 14.2959 21.5385 12.6532 21.5385 10.6281C21.5385 8.62956 19.9209 7.00349 17.906 6.9528V6.92285H11.1254V14.3234ZM15.6097 13.5975C15.6142 13.6008 15.6187 13.604 15.6232 13.6072H11.8519V7.63903H15.6371C15.6327 7.64215 15.6283 7.64528 15.6239 7.64842C15.6192 7.6518 15.6144 7.6552 15.6097 7.6586H17.9286V7.66089C19.5368 7.72276 20.8213 9.02753 20.8213 10.6281C20.8213 12.2286 19.5368 13.5334 17.9286 13.5952V13.5975H15.6097Z" fill="white"/>
<path d="M12.094 15.6762H21.0541V16.3923H14.3768C14.3813 16.3956 14.3858 16.3988 14.3903 16.402H12.0714V16.4043C10.4632 16.4662 9.17875 17.771 9.17875 19.3715C9.17875 20.972 10.4632 22.2768 12.0714 22.3387V22.341H14.3903C14.3812 22.3475 14.3721 22.354 14.3629 22.3605H21.0541V23.0767H12.1747V23.0479C10.1225 23.0393 8.46155 21.3966 8.46155 19.3715C8.46155 17.373 10.0791 15.7469 12.094 15.6962V15.6762Z" fill="white"/>
<path d="M39.0977 12.8867C38.9961 12.9206 38.9023 12.9492 38.8164 12.9727C38.7305 12.9961 38.6484 13.0143 38.5703 13.0273C38.4922 13.043 38.4141 13.0534 38.3359 13.0586C38.2604 13.0664 38.181 13.0703 38.0977 13.0703C37.832 13.0703 37.5911 13.0273 37.375 12.9414C37.1589 12.8529 36.974 12.7292 36.8203 12.5703C36.6667 12.4115 36.5469 12.2214 36.4609 12C36.3776 11.776 36.3359 11.5286 36.3359 11.2578C36.3359 10.9766 36.3789 10.7188 36.4648 10.4844C36.5508 10.2474 36.6706 10.0443 36.8242 9.875C36.9779 9.70312 37.1615 9.57031 37.375 9.47656C37.5885 9.38281 37.8229 9.33594 38.0781 9.33594C38.1562 9.33594 38.2305 9.33984 38.3008 9.34766C38.3737 9.35286 38.4466 9.36328 38.5195 9.37891C38.5951 9.39193 38.6732 9.41016 38.7539 9.43359C38.8372 9.45443 38.9297 9.48047 39.0312 9.51172V9.9375C38.9271 9.89323 38.8333 9.85677 38.75 9.82812C38.6693 9.79948 38.5924 9.77604 38.5195 9.75781C38.4492 9.73958 38.3802 9.72786 38.3125 9.72266C38.2448 9.71484 38.1732 9.71094 38.0977 9.71094C37.8971 9.71094 37.7135 9.7474 37.5469 9.82031C37.3802 9.89323 37.237 9.99609 37.1172 10.1289C37 10.2591 36.9076 10.4167 36.8398 10.6016C36.7747 10.7865 36.7422 10.9909 36.7422 11.2148C36.7422 11.4414 36.7747 11.6458 36.8398 11.8281C36.9049 12.0104 36.9974 12.1667 37.1172 12.2969C37.237 12.4245 37.3828 12.5234 37.5547 12.5938C37.7266 12.6615 37.918 12.6953 38.1289 12.6953C38.2122 12.6953 38.2904 12.6927 38.3633 12.6875C38.4362 12.6797 38.5104 12.668 38.5859 12.6523C38.6615 12.6341 38.7396 12.612 38.8203 12.5859C38.9036 12.5599 38.9961 12.5273 39.0977 12.4883V12.8867ZM42.9844 9.40625V9.76172H41.3828V13H41V9.76172H39.3984V9.40625H42.9844ZM46.4375 9.40625L43.75 14.8398H43.3594L44.6133 12.3047L43.1016 9.40625H43.5039L44.8086 11.9219L46.0469 9.40625H46.4375ZM50.1836 12.6875V13.9453H49.832V13H46.8242V13.9453H46.4688V12.6875H46.75L48.2461 9.33594H48.4883L49.9023 12.6875H50.1836ZM48.3516 9.97656L47.1445 12.6875H49.5195L48.3516 9.97656ZM53.3711 10.0703L50.9766 13.0312H50.7617V9.40625H51.1445V12.3438L53.5391 9.40625H53.7539V13H53.3711V10.0703ZM57.3867 13H57.0039V11.5117H56.4023C56.2695 11.5117 56.1523 11.5247 56.0508 11.5508C55.9492 11.5768 55.8555 11.6172 55.7695 11.6719C55.6862 11.7266 55.6068 11.7969 55.5312 11.8828C55.4583 11.9661 55.3828 12.0664 55.3047 12.1836L54.7617 13H54.2969L54.9219 12.0625C54.9635 12 55.0104 11.9362 55.0625 11.8711C55.1172 11.806 55.1732 11.7461 55.2305 11.6914C55.2878 11.6341 55.3451 11.5846 55.4023 11.543C55.4622 11.4987 55.5182 11.4674 55.5703 11.4492C55.2865 11.3607 55.0781 11.2279 54.9453 11.0508C54.8125 10.8737 54.7461 10.651 54.7461 10.3828C54.7461 10.2161 54.7826 10.0716 54.8555 9.94922C54.9284 9.82682 55.0299 9.72526 55.1602 9.64453C55.293 9.5638 55.4492 9.50391 55.6289 9.46484C55.8112 9.42578 56.0104 9.40625 56.2266 9.40625H57.3867V13ZM57.0039 11.1992V9.71875H56.3047C56.1406 9.71875 55.9883 9.72786 55.8477 9.74609C55.707 9.76172 55.5846 9.79688 55.4805 9.85156C55.3789 9.90365 55.2982 9.97786 55.2383 10.0742C55.181 10.168 55.1523 10.293 55.1523 10.4492C55.1523 10.556 55.1693 10.6562 55.2031 10.75C55.2396 10.8411 55.293 10.9206 55.3633 10.9883C55.4362 11.0534 55.5273 11.1055 55.6367 11.1445C55.7461 11.181 55.8763 11.1992 56.0273 11.1992H57.0039ZM63.9023 12.6875V13.9453H63.5508V13H60.543V13.9453H60.1875V12.6875H60.4688L61.9648 9.33594H62.207L63.6211 12.6875H63.9023ZM62.0703 9.97656L60.8633 12.6875H63.2383L62.0703 9.97656ZM67.0898 10.0703L64.6953 13.0312H64.4805V9.40625H64.8633V12.3438L67.2578 9.40625H67.4727V13H67.0898V10.0703ZM68.8164 11.2734V10.9609H69.4258C69.5924 10.9609 69.7383 10.9414 69.8633 10.9023C69.9883 10.8607 70.0924 10.8073 70.1758 10.7422C70.2591 10.6771 70.3216 10.6042 70.3633 10.5234C70.4049 10.4427 70.4258 10.362 70.4258 10.2812C70.4258 10.1641 70.4023 10.0664 70.3555 9.98828C70.3086 9.90755 70.2422 9.84245 70.1562 9.79297C70.0703 9.74089 69.9661 9.70443 69.8438 9.68359C69.7214 9.66016 69.5846 9.64844 69.4336 9.64844C69.2383 9.64844 69.0417 9.67708 68.8438 9.73438C68.6458 9.79167 68.4609 9.86458 68.2891 9.95312V9.625C68.3698 9.58594 68.4583 9.54948 68.5547 9.51562C68.651 9.47917 68.7526 9.44792 68.8594 9.42188C68.9661 9.39583 69.0755 9.375 69.1875 9.35938C69.2995 9.34375 69.4102 9.33594 69.5195 9.33594C69.6862 9.33594 69.8477 9.35417 70.0039 9.39062C70.1628 9.42448 70.3034 9.47656 70.4258 9.54688C70.5482 9.61719 70.6458 9.70703 70.7188 9.81641C70.7943 9.92318 70.832 10.0508 70.832 10.1992C70.832 10.2982 70.8125 10.3945 70.7734 10.4883C70.737 10.5794 70.6875 10.6641 70.625 10.7422C70.5625 10.8177 70.4896 10.8854 70.4062 10.9453C70.3255 11.0026 70.2409 11.0469 70.1523 11.0781C70.207 11.0938 70.276 11.1237 70.3594 11.168C70.4427 11.2122 70.5234 11.2734 70.6016 11.3516C70.6797 11.4271 70.7474 11.5208 70.8047 11.6328C70.862 11.7448 70.8906 11.8776 70.8906 12.0312C70.8906 12.2266 70.8424 12.3906 70.7461 12.5234C70.6523 12.6562 70.5326 12.763 70.3867 12.8438C70.2435 12.9245 70.0872 12.9818 69.918 13.0156C69.7513 13.0521 69.5951 13.0703 69.4492 13.0703C69.2357 13.0703 69.0247 13.0534 68.8164 13.0195C68.6107 12.9883 68.4141 12.9362 68.2266 12.8633V12.5195C68.4141 12.6081 68.6042 12.6706 68.7969 12.707C68.9896 12.7435 69.1914 12.7617 69.4023 12.7617C69.5326 12.7617 69.6615 12.7474 69.7891 12.7188C69.9193 12.6875 70.0352 12.6406 70.1367 12.5781C70.2383 12.5156 70.3203 12.4349 70.3828 12.3359C70.4479 12.237 70.4805 12.1198 70.4805 11.9844C70.4805 11.8542 70.4505 11.7448 70.3906 11.6562C70.3333 11.5651 70.2526 11.4909 70.1484 11.4336C70.0443 11.3763 69.9193 11.3359 69.7734 11.3125C69.6276 11.2865 69.4661 11.2734 69.2891 11.2734H68.8164ZM73.5234 10.3906C73.5234 9.90104 73.2578 9.65625 72.7266 9.65625C72.6302 9.65625 72.5378 9.66536 72.4492 9.68359C72.3633 9.69922 72.276 9.72656 72.1875 9.76562C72.1016 9.80208 72.013 9.84896 71.9219 9.90625C71.8307 9.96354 71.7331 10.0326 71.6289 10.1133V9.71875C71.7383 9.65104 71.8424 9.59375 71.9414 9.54688C72.0404 9.4974 72.1354 9.45703 72.2266 9.42578C72.3203 9.39453 72.4128 9.3724 72.5039 9.35938C72.5977 9.34375 72.6927 9.33594 72.7891 9.33594C72.9036 9.33594 73.026 9.35026 73.1562 9.37891C73.2865 9.40495 73.4076 9.45312 73.5195 9.52344C73.6315 9.59375 73.724 9.6901 73.7969 9.8125C73.8724 9.93229 73.9102 10.0859 73.9102 10.2734V12.5117C73.9102 12.5846 73.9167 12.6341 73.9297 12.6602C73.9427 12.6836 73.9648 12.6953 73.9961 12.6953C74.0169 12.6953 74.0469 12.6862 74.0859 12.668C74.125 12.6471 74.168 12.6224 74.2148 12.5938C74.2617 12.5625 74.3099 12.5286 74.3594 12.4922C74.4115 12.4531 74.4609 12.4141 74.5078 12.375V12.6953L74.4453 12.7422C74.3542 12.8099 74.276 12.8659 74.2109 12.9102C74.1458 12.9518 74.0872 12.9844 74.0352 13.0078C73.9857 13.0312 73.9401 13.0469 73.8984 13.0547C73.8594 13.0651 73.8203 13.0703 73.7812 13.0703C73.7396 13.0703 73.7031 13.0638 73.6719 13.0508C73.6432 13.0378 73.6185 13.0156 73.5977 12.9844C73.5794 12.9505 73.5638 12.9049 73.5508 12.8477C73.5404 12.7878 73.5312 12.7135 73.5234 12.625C73.3203 12.7812 73.1302 12.8945 72.9531 12.9648C72.7786 13.0352 72.5938 13.0703 72.3984 13.0703C72.263 13.0703 72.1354 13.0469 72.0156 13C71.8984 12.9505 71.7956 12.8854 71.707 12.8047C71.6211 12.7214 71.5534 12.625 71.5039 12.5156C71.4544 12.4036 71.4297 12.2852 71.4297 12.1602C71.4297 12.0039 71.457 11.8646 71.5117 11.7422C71.5664 11.6172 71.6419 11.5078 71.7383 11.4141C71.8372 11.3177 71.9518 11.237 72.082 11.1719C72.2148 11.1042 72.3581 11.0482 72.5117 11.0039C72.668 10.957 72.832 10.9219 73.0039 10.8984C73.1758 10.8724 73.349 10.8555 73.5234 10.8477V10.3906ZM73.5234 11.168C73.2891 11.1576 73.0677 11.1745 72.8594 11.2188C72.6536 11.2604 72.4727 11.3255 72.3164 11.4141C72.1628 11.5026 72.0404 11.6107 71.9492 11.7383C71.8581 11.8633 71.8125 12.0039 71.8125 12.1602C71.8125 12.2435 71.8307 12.3216 71.8672 12.3945C71.9036 12.4674 71.9531 12.5312 72.0156 12.5859C72.0781 12.638 72.1523 12.6797 72.2383 12.7109C72.3268 12.7396 72.4219 12.7539 72.5234 12.7539C72.6094 12.7539 72.6914 12.7461 72.7695 12.7305C72.8503 12.7122 72.9297 12.6849 73.0078 12.6484C73.0885 12.6094 73.1706 12.5612 73.2539 12.5039C73.3398 12.444 73.4297 12.3724 73.5234 12.2891V11.168ZM75.7695 7.82422C75.9388 8.18099 76.1953 8.35938 76.5391 8.35938C76.7109 8.35938 76.8581 8.31771 76.9805 8.23438C77.1029 8.14844 77.2148 8.01172 77.3164 7.82422H77.625C77.513 8.12891 77.3659 8.35677 77.1836 8.50781C77.0039 8.65885 76.7917 8.73438 76.5469 8.73438C76.4115 8.73438 76.2878 8.70964 76.1758 8.66016C76.0638 8.61068 75.9622 8.54427 75.8711 8.46094C75.7826 8.375 75.7018 8.27734 75.6289 8.16797C75.5586 8.05859 75.4961 7.94401 75.4414 7.82422H75.7695ZM77.6602 10.0703L75.2656 13.0312H75.0508V9.40625H75.4336V12.3438L77.8281 9.40625H78.043V13H77.6602V10.0703ZM82.0273 9.40625V13H81.6445V11.2891H79.418V13H79.0352V9.40625H79.418V10.9766H81.6445V9.40625H82.0273ZM84.9062 10.3906C84.9062 9.90104 84.6406 9.65625 84.1094 9.65625C84.013 9.65625 83.9206 9.66536 83.832 9.68359C83.7461 9.69922 83.6589 9.72656 83.5703 9.76562C83.4844 9.80208 83.3958 9.84896 83.3047 9.90625C83.2135 9.96354 83.1159 10.0326 83.0117 10.1133V9.71875C83.1211 9.65104 83.2253 9.59375 83.3242 9.54688C83.4232 9.4974 83.5182 9.45703 83.6094 9.42578C83.7031 9.39453 83.7956 9.3724 83.8867 9.35938C83.9805 9.34375 84.0755 9.33594 84.1719 9.33594C84.2865 9.33594 84.4089 9.35026 84.5391 9.37891C84.6693 9.40495 84.7904 9.45312 84.9023 9.52344C85.0143 9.59375 85.1068 9.6901 85.1797 9.8125C85.2552 9.93229 85.293 10.0859 85.293 10.2734V12.5117C85.293 12.5846 85.2995 12.6341 85.3125 12.6602C85.3255 12.6836 85.3477 12.6953 85.3789 12.6953C85.3997 12.6953 85.4297 12.6862 85.4688 12.668C85.5078 12.6471 85.5508 12.6224 85.5977 12.5938C85.6445 12.5625 85.6927 12.5286 85.7422 12.4922C85.7943 12.4531 85.8438 12.4141 85.8906 12.375V12.6953L85.8281 12.7422C85.737 12.8099 85.6589 12.8659 85.5938 12.9102C85.5286 12.9518 85.4701 12.9844 85.418 13.0078C85.3685 13.0312 85.3229 13.0469 85.2812 13.0547C85.2422 13.0651 85.2031 13.0703 85.1641 13.0703C85.1224 13.0703 85.0859 13.0638 85.0547 13.0508C85.026 13.0378 85.0013 13.0156 84.9805 12.9844C84.9622 12.9505 84.9466 12.9049 84.9336 12.8477C84.9232 12.7878 84.9141 12.7135 84.9062 12.625C84.7031 12.7812 84.513 12.8945 84.3359 12.9648C84.1615 13.0352 83.9766 13.0703 83.7812 13.0703C83.6458 13.0703 83.5182 13.0469 83.3984 13C83.2812 12.9505 83.1784 12.8854 83.0898 12.8047C83.0039 12.7214 82.9362 12.625 82.8867 12.5156C82.8372 12.4036 82.8125 12.2852 82.8125 12.1602C82.8125 12.0039 82.8398 11.8646 82.8945 11.7422C82.9492 11.6172 83.0247 11.5078 83.1211 11.4141C83.2201 11.3177 83.3346 11.237 83.4648 11.1719C83.5977 11.1042 83.7409 11.0482 83.8945 11.0039C84.0508 10.957 84.2148 10.9219 84.3867 10.8984C84.5586 10.8724 84.7318 10.8555 84.9062 10.8477V10.3906ZM84.9062 11.168C84.6719 11.1576 84.4505 11.1745 84.2422 11.2188C84.0365 11.2604 83.8555 11.3255 83.6992 11.4141C83.5456 11.5026 83.4232 11.6107 83.332 11.7383C83.2409 11.8633 83.1953 12.0039 83.1953 12.1602C83.1953 12.2435 83.2135 12.3216 83.25 12.3945C83.2865 12.4674 83.3359 12.5312 83.3984 12.5859C83.4609 12.638 83.5352 12.6797 83.6211 12.7109C83.7096 12.7396 83.8047 12.7539 83.9062 12.7539C83.9922 12.7539 84.0742 12.7461 84.1523 12.7305C84.2331 12.7122 84.3125 12.6849 84.3906 12.6484C84.4714 12.6094 84.5534 12.5612 84.6367 12.5039C84.7227 12.444 84.8125 12.3724 84.9062 12.2891V11.168ZM39.1055 19.0703L36.7109 22.0312H36.4961V18.4062H36.8789V21.3438L39.2734 18.4062H39.4883V22H39.1055V19.0703ZM43.0977 18.6094C43.1992 18.5599 43.2956 18.5182 43.3867 18.4844C43.4779 18.4479 43.5664 18.4193 43.6523 18.3984C43.7383 18.3776 43.8242 18.362 43.9102 18.3516C43.9961 18.3411 44.0859 18.3359 44.1797 18.3359C44.4349 18.3359 44.6706 18.3828 44.8867 18.4766C45.1055 18.5677 45.293 18.6966 45.4492 18.8633C45.6081 19.0273 45.7318 19.2227 45.8203 19.4492C45.9089 19.6758 45.9531 19.9232 45.9531 20.1914C45.9531 20.4544 45.9062 20.7005 45.8125 20.9297C45.7214 21.1589 45.5951 21.3581 45.4336 21.5273C45.2747 21.6966 45.0859 21.8294 44.8672 21.9258C44.651 22.0221 44.4167 22.0703 44.1641 22.0703C44.0755 22.0703 43.9883 22.0651 43.9023 22.0547C43.819 22.0469 43.7344 22.0312 43.6484 22.0078C43.5651 21.987 43.4779 21.9596 43.3867 21.9258C43.2956 21.8919 43.1992 21.8503 43.0977 21.8008V23.8398H42.7148V18.4062H43.0977V18.6094ZM43.0977 21.4258C43.1914 21.4753 43.2786 21.5169 43.3594 21.5508C43.4401 21.5846 43.5195 21.6133 43.5977 21.6367C43.6758 21.6576 43.7539 21.6732 43.832 21.6836C43.9128 21.6914 43.9987 21.6953 44.0898 21.6953C44.306 21.6953 44.5026 21.6602 44.6797 21.5898C44.8568 21.5195 45.0078 21.4206 45.1328 21.293C45.2604 21.1628 45.3581 21.0078 45.4258 20.8281C45.4961 20.6458 45.5312 20.444 45.5312 20.2227C45.5312 20.0039 45.4935 19.8021 45.418 19.6172C45.3451 19.4323 45.2422 19.2734 45.1094 19.1406C44.9792 19.0052 44.8229 18.8997 44.6406 18.8242C44.4583 18.7487 44.2591 18.7109 44.043 18.7109C43.9622 18.7109 43.8854 18.7161 43.8125 18.7266C43.7396 18.7344 43.6654 18.7487 43.5898 18.7695C43.5169 18.7904 43.4401 18.8177 43.3594 18.8516C43.2786 18.8854 43.1914 18.9271 43.0977 18.9766V21.4258ZM48.6719 19.3906C48.6719 18.901 48.4062 18.6562 47.875 18.6562C47.7786 18.6562 47.6862 18.6654 47.5977 18.6836C47.5117 18.6992 47.4245 18.7266 47.3359 18.7656C47.25 18.8021 47.1615 18.849 47.0703 18.9062C46.9792 18.9635 46.8815 19.0326 46.7773 19.1133V18.7188C46.8867 18.651 46.9909 18.5938 47.0898 18.5469C47.1888 18.4974 47.2839 18.457 47.375 18.4258C47.4688 18.3945 47.5612 18.3724 47.6523 18.3594C47.7461 18.3438 47.8411 18.3359 47.9375 18.3359C48.0521 18.3359 48.1745 18.3503 48.3047 18.3789C48.4349 18.4049 48.556 18.4531 48.668 18.5234C48.7799 18.5938 48.8724 18.6901 48.9453 18.8125C49.0208 18.9323 49.0586 19.0859 49.0586 19.2734V21.5117C49.0586 21.5846 49.0651 21.6341 49.0781 21.6602C49.0911 21.6836 49.1133 21.6953 49.1445 21.6953C49.1654 21.6953 49.1953 21.6862 49.2344 21.668C49.2734 21.6471 49.3164 21.6224 49.3633 21.5938C49.4102 21.5625 49.4583 21.5286 49.5078 21.4922C49.5599 21.4531 49.6094 21.4141 49.6562 21.375V21.6953L49.5938 21.7422C49.5026 21.8099 49.4245 21.8659 49.3594 21.9102C49.2943 21.9518 49.2357 21.9844 49.1836 22.0078C49.1341 22.0312 49.0885 22.0469 49.0469 22.0547C49.0078 22.0651 48.9688 22.0703 48.9297 22.0703C48.888 22.0703 48.8516 22.0638 48.8203 22.0508C48.7917 22.0378 48.7669 22.0156 48.7461 21.9844C48.7279 21.9505 48.7122 21.9049 48.6992 21.8477C48.6888 21.7878 48.6797 21.7135 48.6719 21.625C48.4688 21.7812 48.2786 21.8945 48.1016 21.9648C47.9271 22.0352 47.7422 22.0703 47.5469 22.0703C47.4115 22.0703 47.2839 22.0469 47.1641 22C47.0469 21.9505 46.944 21.8854 46.8555 21.8047C46.7695 21.7214 46.7018 21.625 46.6523 21.5156C46.6029 21.4036 46.5781 21.2852 46.5781 21.1602C46.5781 21.0039 46.6055 20.8646 46.6602 20.7422C46.7148 20.6172 46.7904 20.5078 46.8867 20.4141C46.9857 20.3177 47.1003 20.237 47.2305 20.1719C47.3633 20.1042 47.5065 20.0482 47.6602 20.0039C47.8164 19.957 47.9805 19.9219 48.1523 19.8984C48.3242 19.8724 48.4974 19.8555 48.6719 19.8477V19.3906ZM48.6719 20.168C48.4375 20.1576 48.2161 20.1745 48.0078 20.2188C47.8021 20.2604 47.6211 20.3255 47.4648 20.4141C47.3112 20.5026 47.1888 20.6107 47.0977 20.7383C47.0065 20.8633 46.9609 21.0039 46.9609 21.1602C46.9609 21.2435 46.9792 21.3216 47.0156 21.3945C47.0521 21.4674 47.1016 21.5312 47.1641 21.5859C47.2266 21.638 47.3008 21.6797 47.3867 21.7109C47.4753 21.7396 47.5703 21.7539 47.6719 21.7539C47.7578 21.7539 47.8398 21.7461 47.918 21.7305C47.9987 21.7122 48.0781 21.6849 48.1562 21.6484C48.237 21.6094 48.319 21.5612 48.4023 21.5039C48.4883 21.444 48.5781 21.3724 48.6719 21.2891V20.168ZM50.5508 20.2734V19.9609H51.1602C51.3268 19.9609 51.4727 19.9414 51.5977 19.9023C51.7227 19.8607 51.8268 19.8073 51.9102 19.7422C51.9935 19.6771 52.056 19.6042 52.0977 19.5234C52.1393 19.4427 52.1602 19.362 52.1602 19.2812C52.1602 19.1641 52.1367 19.0664 52.0898 18.9883C52.043 18.9076 51.9766 18.8424 51.8906 18.793C51.8047 18.7409 51.7005 18.7044 51.5781 18.6836C51.4557 18.6602 51.319 18.6484 51.168 18.6484C50.9727 18.6484 50.776 18.6771 50.5781 18.7344C50.3802 18.7917 50.1953 18.8646 50.0234 18.9531V18.625C50.1042 18.5859 50.1927 18.5495 50.2891 18.5156C50.3854 18.4792 50.487 18.4479 50.5938 18.4219C50.7005 18.3958 50.8099 18.375 50.9219 18.3594C51.0339 18.3438 51.1445 18.3359 51.2539 18.3359C51.4206 18.3359 51.582 18.3542 51.7383 18.3906C51.8971 18.4245 52.0378 18.4766 52.1602 18.5469C52.2826 18.6172 52.3802 18.707 52.4531 18.8164C52.5286 18.9232 52.5664 19.0508 52.5664 19.1992C52.5664 19.2982 52.5469 19.3945 52.5078 19.4883C52.4714 19.5794 52.4219 19.6641 52.3594 19.7422C52.2969 19.8177 52.224 19.8854 52.1406 19.9453C52.0599 20.0026 51.9753 20.0469 51.8867 20.0781C51.9414 20.0938 52.0104 20.1237 52.0938 20.168C52.1771 20.2122 52.2578 20.2734 52.3359 20.3516C52.4141 20.4271 52.4818 20.5208 52.5391 20.6328C52.5964 20.7448 52.625 20.8776 52.625 21.0312C52.625 21.2266 52.5768 21.3906 52.4805 21.5234C52.3867 21.6562 52.2669 21.763 52.1211 21.8438C51.9779 21.9245 51.8216 21.9818 51.6523 22.0156C51.4857 22.0521 51.3294 22.0703 51.1836 22.0703C50.9701 22.0703 50.7591 22.0534 50.5508 22.0195C50.3451 21.9883 50.1484 21.9362 49.9609 21.8633V21.5195C50.1484 21.6081 50.3385 21.6706 50.5312 21.707C50.724 21.7435 50.9258 21.7617 51.1367 21.7617C51.2669 21.7617 51.3958 21.7474 51.5234 21.7188C51.6536 21.6875 51.7695 21.6406 51.8711 21.5781C51.9727 21.5156 52.0547 21.4349 52.1172 21.3359C52.1823 21.237 52.2148 21.1198 52.2148 20.9844C52.2148 20.8542 52.1849 20.7448 52.125 20.6562C52.0677 20.5651 51.987 20.4909 51.8828 20.4336C51.7786 20.3763 51.6536 20.3359 51.5078 20.3125C51.362 20.2865 51.2005 20.2734 51.0234 20.2734H50.5508ZM53.7617 18.6094C53.8633 18.5599 53.9596 18.5182 54.0508 18.4844C54.1419 18.4479 54.2305 18.4193 54.3164 18.3984C54.4023 18.3776 54.4883 18.362 54.5742 18.3516C54.6602 18.3411 54.75 18.3359 54.8438 18.3359C55.099 18.3359 55.3346 18.3828 55.5508 18.4766C55.7695 18.5677 55.957 18.6966 56.1133 18.8633C56.2721 19.0273 56.3958 19.2227 56.4844 19.4492C56.5729 19.6758 56.6172 19.9232 56.6172 20.1914C56.6172 20.4544 56.5703 20.7005 56.4766 20.9297C56.3854 21.1589 56.2591 21.3581 56.0977 21.5273C55.9388 21.6966 55.75 21.8294 55.5312 21.9258C55.3151 22.0221 55.0807 22.0703 54.8281 22.0703C54.7396 22.0703 54.6523 22.0651 54.5664 22.0547C54.4831 22.0469 54.3984 22.0312 54.3125 22.0078C54.2292 21.987 54.1419 21.9596 54.0508 21.9258C53.9596 21.8919 53.8633 21.8503 53.7617 21.8008V23.8398H53.3789V18.4062H53.7617V18.6094ZM53.7617 21.4258C53.8555 21.4753 53.9427 21.5169 54.0234 21.5508C54.1042 21.5846 54.1836 21.6133 54.2617 21.6367C54.3398 21.6576 54.418 21.6732 54.4961 21.6836C54.5768 21.6914 54.6628 21.6953 54.7539 21.6953C54.9701 21.6953 55.1667 21.6602 55.3438 21.5898C55.5208 21.5195 55.6719 21.4206 55.7969 21.293C55.9245 21.1628 56.0221 21.0078 56.0898 20.8281C56.1602 20.6458 56.1953 20.444 56.1953 20.2227C56.1953 20.0039 56.1576 19.8021 56.082 19.6172C56.0091 19.4323 55.9062 19.2734 55.7734 19.1406C55.6432 19.0052 55.487 18.8997 55.3047 18.8242C55.1224 18.7487 54.9232 18.7109 54.707 18.7109C54.6263 18.7109 54.5495 18.7161 54.4766 18.7266C54.4036 18.7344 54.3294 18.7487 54.2539 18.7695C54.181 18.7904 54.1042 18.8177 54.0234 18.8516C53.9427 18.8854 53.8555 18.9271 53.7617 18.9766V21.4258ZM59.3359 19.3906C59.3359 18.901 59.0703 18.6562 58.5391 18.6562C58.4427 18.6562 58.3503 18.6654 58.2617 18.6836C58.1758 18.6992 58.0885 18.7266 58 18.7656C57.9141 18.8021 57.8255 18.849 57.7344 18.9062C57.6432 18.9635 57.5456 19.0326 57.4414 19.1133V18.7188C57.5508 18.651 57.6549 18.5938 57.7539 18.5469C57.8529 18.4974 57.9479 18.457 58.0391 18.4258C58.1328 18.3945 58.2253 18.3724 58.3164 18.3594C58.4102 18.3438 58.5052 18.3359 58.6016 18.3359C58.7161 18.3359 58.8385 18.3503 58.9688 18.3789C59.099 18.4049 59.2201 18.4531 59.332 18.5234C59.444 18.5938 59.5365 18.6901 59.6094 18.8125C59.6849 18.9323 59.7227 19.0859 59.7227 19.2734V21.5117C59.7227 21.5846 59.7292 21.6341 59.7422 21.6602C59.7552 21.6836 59.7773 21.6953 59.8086 21.6953C59.8294 21.6953 59.8594 21.6862 59.8984 21.668C59.9375 21.6471 59.9805 21.6224 60.0273 21.5938C60.0742 21.5625 60.1224 21.5286 60.1719 21.4922C60.224 21.4531 60.2734 21.4141 60.3203 21.375V21.6953L60.2578 21.7422C60.1667 21.8099 60.0885 21.8659 60.0234 21.9102C59.9583 21.9518 59.8997 21.9844 59.8477 22.0078C59.7982 22.0312 59.7526 22.0469 59.7109 22.0547C59.6719 22.0651 59.6328 22.0703 59.5938 22.0703C59.5521 22.0703 59.5156 22.0638 59.4844 22.0508C59.4557 22.0378 59.431 22.0156 59.4102 21.9844C59.3919 21.9505 59.3763 21.9049 59.3633 21.8477C59.3529 21.7878 59.3438 21.7135 59.3359 21.625C59.1328 21.7812 58.9427 21.8945 58.7656 21.9648C58.5911 22.0352 58.4062 22.0703 58.2109 22.0703C58.0755 22.0703 57.9479 22.0469 57.8281 22C57.7109 21.9505 57.6081 21.8854 57.5195 21.8047C57.4336 21.7214 57.3659 21.625 57.3164 21.5156C57.2669 21.4036 57.2422 21.2852 57.2422 21.1602C57.2422 21.0039 57.2695 20.8646 57.3242 20.7422C57.3789 20.6172 57.4544 20.5078 57.5508 20.4141C57.6497 20.3177 57.7643 20.237 57.8945 20.1719C58.0273 20.1042 58.1706 20.0482 58.3242 20.0039C58.4805 19.957 58.6445 19.9219 58.8164 19.8984C58.9883 19.8724 59.1615 19.8555 59.3359 19.8477V19.3906ZM59.3359 20.168C59.1016 20.1576 58.8802 20.1745 58.6719 20.2188C58.4661 20.2604 58.2852 20.3255 58.1289 20.4141C57.9753 20.5026 57.8529 20.6107 57.7617 20.7383C57.6706 20.8633 57.625 21.0039 57.625 21.1602C57.625 21.2435 57.6432 21.3216 57.6797 21.3945C57.7161 21.4674 57.7656 21.5312 57.8281 21.5859C57.8906 21.638 57.9648 21.6797 58.0508 21.7109C58.1393 21.7396 58.2344 21.7539 58.3359 21.7539C58.4219 21.7539 58.5039 21.7461 58.582 21.7305C58.6628 21.7122 58.7422 21.6849 58.8203 21.6484C58.901 21.6094 58.9831 21.5612 59.0664 21.5039C59.1523 21.444 59.2422 21.3724 59.3359 21.2891V20.168ZM60.7031 20.0469C60.7031 19.4609 60.7578 18.9609 60.8672 18.5469C60.9766 18.1302 61.1406 17.7852 61.3594 17.5117C61.5807 17.2357 61.8568 17.0234 62.1875 16.875C62.5182 16.724 62.9036 16.6211 63.3438 16.5664L64.1016 16.4727L64.0391 16.8398L63.2305 16.9375C62.8737 16.9818 62.569 17.0651 62.3164 17.1875C62.0638 17.3073 61.8542 17.4609 61.6875 17.6484C61.5234 17.8333 61.3971 18.0482 61.3086 18.293C61.2201 18.5352 61.1602 18.8008 61.1289 19.0898C61.3008 18.8372 61.5013 18.6484 61.7305 18.5234C61.9622 18.3984 62.2044 18.3359 62.457 18.3359C62.7201 18.3359 62.9583 18.3841 63.1719 18.4805C63.3854 18.5742 63.5677 18.7044 63.7188 18.8711C63.8724 19.0378 63.9909 19.2357 64.0742 19.4648C64.1576 19.6914 64.1992 19.9388 64.1992 20.207C64.1992 20.4727 64.1576 20.7201 64.0742 20.9492C63.9909 21.1758 63.8724 21.3724 63.7188 21.5391C63.5677 21.7057 63.3854 21.8359 63.1719 21.9297C62.9583 22.0234 62.7201 22.0703 62.457 22.0703C62.1966 22.0703 61.9583 22.0247 61.7422 21.9336C61.526 21.8398 61.3411 21.707 61.1875 21.5352C61.0339 21.3607 60.9141 21.1484 60.8281 20.8984C60.7448 20.6458 60.7031 20.362 60.7031 20.0469ZM63.793 20.207C63.793 19.9935 63.7604 19.7956 63.6953 19.6133C63.6328 19.431 63.543 19.2734 63.4258 19.1406C63.3086 19.0052 63.168 18.8997 63.0039 18.8242C62.8398 18.7487 62.6576 18.7109 62.457 18.7109C62.2539 18.7109 62.069 18.7487 61.9023 18.8242C61.7357 18.8997 61.5938 19.0039 61.4766 19.1367C61.3594 19.2695 61.2682 19.4271 61.2031 19.6094C61.1406 19.7917 61.1094 19.9909 61.1094 20.207C61.1094 20.4206 61.1406 20.6185 61.2031 20.8008C61.2682 20.9831 61.3594 21.1406 61.4766 21.2734C61.5938 21.4062 61.7357 21.5104 61.9023 21.5859C62.069 21.6589 62.2539 21.6953 62.457 21.6953C62.6576 21.6953 62.8398 21.6589 63.0039 21.5859C63.168 21.5104 63.3086 21.4062 63.4258 21.2734C63.543 21.1406 63.6328 20.9831 63.6953 20.8008C63.7604 20.6185 63.793 20.4206 63.793 20.207ZM68.5312 20.207C68.5312 20.4727 68.4844 20.7201 68.3906 20.9492C68.2995 21.1758 68.1732 21.3724 68.0117 21.5391C67.8503 21.7057 67.6576 21.8359 67.4336 21.9297C67.2122 22.0234 66.9701 22.0703 66.707 22.0703C66.4466 22.0703 66.2044 22.0234 65.9805 21.9297C65.7565 21.8359 65.5625 21.7057 65.3984 21.5391C65.2344 21.3724 65.1055 21.1758 65.0117 20.9492C64.9206 20.7201 64.875 20.4727 64.875 20.207C64.875 19.9388 64.9206 19.6914 65.0117 19.4648C65.1055 19.2357 65.2344 19.0378 65.3984 18.8711C65.5625 18.7044 65.7565 18.5742 65.9805 18.4805C66.2044 18.3841 66.4466 18.3359 66.707 18.3359C66.9701 18.3359 67.2122 18.3841 67.4336 18.4805C67.6576 18.5742 67.8503 18.7044 68.0117 18.8711C68.1732 19.0378 68.2995 19.2357 68.3906 19.4648C68.4844 19.6914 68.5312 19.9388 68.5312 20.207ZM68.125 20.207C68.125 19.9935 68.0885 19.7956 68.0156 19.6133C67.9453 19.431 67.8464 19.2734 67.7188 19.1406C67.5911 19.0052 67.4414 18.8997 67.2695 18.8242C67.0977 18.7487 66.9102 18.7109 66.707 18.7109C66.5039 18.7109 66.3151 18.7487 66.1406 18.8242C65.9661 18.8997 65.8151 19.0039 65.6875 19.1367C65.5599 19.2695 65.4596 19.4271 65.3867 19.6094C65.3164 19.7917 65.2812 19.9909 65.2812 20.207C65.2812 20.4206 65.3164 20.6185 65.3867 20.8008C65.4596 20.9831 65.5599 21.1406 65.6875 21.2734C65.8151 21.4062 65.9661 21.5104 66.1406 21.5859C66.3151 21.6589 66.5039 21.6953 66.707 21.6953C66.9102 21.6953 67.0977 21.6589 67.2695 21.5859C67.4414 21.5104 67.5911 21.4062 67.7188 21.2734C67.8464 21.1406 67.9453 20.9831 68.0156 20.8008C68.0885 20.6185 68.125 20.4206 68.125 20.207ZM72.5234 18.4062V18.7617H70.9219V22H70.5391V18.7617H68.9375V18.4062H72.5234ZM73.4492 20.2812V22H73.0977V18.4062H73.4492V19.9688H73.6094C73.6823 19.9688 73.7539 19.9596 73.8242 19.9414C73.8971 19.9206 73.9661 19.888 74.0312 19.8438C74.0964 19.7969 74.1576 19.7383 74.2148 19.668C74.2721 19.5951 74.3216 19.5078 74.3633 19.4062L74.5391 18.9609C74.6224 18.7552 74.7292 18.612 74.8594 18.5312C74.9922 18.4479 75.1484 18.4062 75.3281 18.4062H75.4805V18.7617H75.3281C75.2656 18.7617 75.2109 18.7682 75.1641 18.7812C75.1172 18.7943 75.0755 18.8151 75.0391 18.8438C75.0052 18.8698 74.974 18.9049 74.9453 18.9492C74.9193 18.9909 74.8932 19.043 74.8672 19.1055L74.6992 19.5039C74.6732 19.569 74.638 19.6367 74.5938 19.707C74.5521 19.7747 74.5065 19.8385 74.457 19.8984C74.4076 19.9583 74.3555 20.0091 74.3008 20.0508C74.2461 20.0924 74.194 20.1185 74.1445 20.1289C74.2201 20.1549 74.2904 20.1875 74.3555 20.2266C74.4206 20.2656 74.4857 20.3177 74.5508 20.3828C74.6159 20.4453 74.6836 20.5247 74.7539 20.6211C74.8242 20.7174 74.901 20.8359 74.9844 20.9766L75.6016 22H75.1797L74.5547 20.9609C74.4818 20.8411 74.4089 20.7383 74.3359 20.6523C74.263 20.5664 74.1849 20.4961 74.1016 20.4414C74.0208 20.3867 73.931 20.3464 73.832 20.3203C73.7331 20.2943 73.6211 20.2812 73.4961 20.2812H73.4492ZM78.9102 19.0703L76.5156 22.0312H76.3008V18.4062H76.6836V21.3438L79.0781 18.4062H79.293V22H78.9102V19.0703Z" fill="white"/>
</svg>
